<svg width="96" height="56" viewBox="0 0 96 56" fill="none" xmlns="http://www.w3.org/2000/svg">
<path d="M75.8245 40.1718C75.1837 39.5469 74.8355 38.6868 74.8444 37.7887C74.8265 36.8995 75.1837 36.0483 75.8245 35.4436C76.4273 34.8007 77.2667 34.4513 78.153 34.4513C79.0394 34.4424 79.8967 34.8007 80.5084 35.4436C81.1491 36.0483 81.5086 36.8995 81.4885 37.7887C81.4796 39.632 79.9815 41.126 78.1419 41.117C77.2756 41.117 76.4451 40.7766 75.8223 40.1718H75.8245Z" fill="#B28CF4"/>
<path d="M55.2754 40.8349L61.5624 31.9361L55.2754 23.1045H60.9507C61.1672 23.4158 61.7522 24.2961 62.7122 25.734C63.6923 27.1518 64.2773 28.0321 64.4737 28.3636L67.9611 23.1067H73.3819L67.1998 31.7882L73.5895 40.8281H67.9812L64.2862 35.3899C64.1634 35.578 63.824 36.0999 63.2503 36.9398C62.6943 37.782 62.1652 38.5749 61.6673 39.314L60.6582 40.8259L55.2754 40.8349Z" fill="white"/>
<path fill-rule="evenodd" clip-rule="evenodd" d="M50.5812 34.6217L54.5686 35.8133C54.0886 37.4484 53.1464 38.7923 51.731 39.8517C50.3445 40.9111 48.612 41.4397 46.529 41.4397C43.9927 41.4397 41.836 40.5886 40.0633 38.8774C38.2906 37.146 37.4043 34.839 37.4043 31.9564C37.4043 29.2238 38.2616 26.9817 39.9874 25.2526C41.7132 23.5033 43.7471 22.623 46.0958 22.623C48.8286 22.623 50.9585 23.4361 52.4856 25.0712C54.0417 26.6973 54.8231 28.9483 54.8231 31.804C54.8231 32.588 54.8231 32.5611 54.7472 33.2801H42.1084C42.1374 34.3955 42.6353 35.437 43.4748 36.165C44.3321 36.931 45.3702 37.3185 46.5669 37.3185C48.6031 37.3274 49.9404 36.4293 50.5812 34.624V34.6217ZM49.0362 27.5193C49.706 28.1823 50.0922 29.0692 50.1101 30.0055H42.2111C42.258 29.1163 42.6442 28.3122 43.3609 27.5932C44.0776 26.8742 45.0108 26.5158 46.1606 26.5158C47.4332 26.5158 48.3954 26.8473 49.0362 27.5193Z" fill="white"/>
<path d="M34.3714 40.8911H29.5938V14.8018H34.3714V40.8911Z" fill="white"/>
<path d="M24.746 18.7727C24.1142 18.7637 23.4935 18.9608 22.9845 19.3505C22.5045 19.7089 22.2678 20.3338 22.2678 21.223V23.1717H26.2552V27.275H22.2678V40.8908H17.4521V27.275H14.5117V23.1717H17.4521V21.1581C17.4521 19.1624 18.0281 17.5654 19.1779 16.3649C20.3478 15.1643 21.9218 14.5596 23.882 14.5596C24.938 14.5596 25.7283 14.6828 26.2485 14.9179V18.9563C25.7685 18.8242 25.2595 18.757 24.7505 18.7771L24.746 18.7727Z" fill="white"/>
</svg>
